<svg version="1.1" preserveAspectRatio="none" xmlns="http://www.w3.org/2000/svg" width="500" height="500" viewBox="0 0 500 500"><rect width="100%" height="100%" fill="#FFFFFF" fill-opacity="1"/><svg viewBox="252.8698 669.3461 380.9823 208" width="333" height="181.80372159021562" x="83.5px" y="159.0981px" xmlns="http://www.w3.org/2000/svg" xmlns:xlink="http://www.w3.org/1999/xlink" preserveAspectRatio="none"><defs></defs><style>.companyName {fill:#1e1e1e;fill-opacity:1;}.icon1 {fill:#EB3F3F;fill-opacity:1;}.icon3-str {stroke:#848383;stroke-opacity:1;}.shapeStroke-str {stroke:#1e1e1e;stroke-opacity:1;}.text {fill:#1e1e1e;fill-opacity:1;}</style><g opacity="1" transform="rotate(0 252.8698 847.3461)">
<svg width="349.1359" height="30" x="252.8698" y="847.3461" version="1.1" preserveAspectRatio="none" viewBox="3.32 -29.68 439.44 37.760000000000005">
  <g transform="matrix(1 0 0 1 0 0)" class="text"><path id="id-6izo4zJp18" d="M28.12 0L21.16 0L15.76-7.80L15.44-7.80L9.80-7.80L9.80 0L3.32 0L3.32-28L15.44-28Q19.16-28 21.90-26.76Q24.64-25.52 26.12-23.24Q27.60-20.96 27.60-17.84L27.60-17.84Q27.60-14.72 26.10-12.46Q24.60-10.20 21.84-9L21.84-9L28.12 0ZM21.04-17.84Q21.04-20.20 19.52-21.46Q18-22.72 15.08-22.72L15.08-22.72L9.80-22.72L9.80-12.96L15.08-12.96Q18-12.96 19.52-14.24Q21.04-15.52 21.04-17.84L21.04-17.84Z M54.96-10.68Q54.96-10.56 54.84-9L54.84-9L38.56-9Q39-7 40.64-5.84Q42.28-4.68 44.72-4.68L44.72-4.68Q46.40-4.68 47.70-5.18Q49-5.68 50.12-6.76L50.12-6.76L53.44-3.16Q50.40 0.32 44.56 0.32L44.56 0.32Q40.92 0.32 38.12-1.10Q35.32-2.52 33.80-5.04Q32.28-7.56 32.28-10.76L32.28-10.76Q32.28-13.92 33.78-16.46Q35.28-19 37.90-20.42Q40.52-21.84 43.76-21.84L43.76-21.84Q46.92-21.84 49.48-20.48Q52.04-19.12 53.50-16.58Q54.96-14.04 54.96-10.68L54.96-10.68ZM43.80-17.12Q41.68-17.12 40.24-15.92Q38.80-14.72 38.48-12.64L38.48-12.64L49.08-12.64Q48.76-14.68 47.32-15.90Q45.88-17.12 43.80-17.12L43.80-17.12Z M60.32-8.76L60.32-13.76L71.64-13.76L71.64-8.76L60.32-8.76Z M88.40 0.32Q85 0.32 82.30-1.10Q79.60-2.52 78.08-5.04Q76.56-7.56 76.56-10.76L76.56-10.76Q76.56-13.96 78.08-16.48Q79.60-19 82.30-20.42Q85-21.84 88.40-21.84L88.40-21.84Q91.80-21.84 94.48-20.42Q97.16-19 98.68-16.48Q100.20-13.96 100.20-10.76L100.20-10.76Q100.20-7.56 98.68-5.04Q97.16-2.52 94.48-1.10Q91.80 0.32 88.40 0.32L88.40 0.32ZM88.40-4.80Q90.80-4.80 92.34-6.42Q93.88-8.04 93.88-10.76L93.88-10.76Q93.88-13.48 92.34-15.10Q90.80-16.72 88.40-16.72L88.40-16.72Q86-16.72 84.44-15.10Q82.88-13.48 82.88-10.76L82.88-10.76Q82.88-8.04 84.44-6.42Q86-4.80 88.40-4.80L88.40-4.80Z M119.04-21.84Q123.04-21.84 125.50-19.44Q127.96-17.04 127.96-12.32L127.96-12.32L127.96 0L121.72 0L121.72-11.36Q121.72-13.92 120.60-15.18Q119.48-16.44 117.36-16.44L117.36-16.44Q115-16.44 113.60-14.98Q112.20-13.52 112.20-10.64L112.20-10.64L112.20 0L105.96 0L105.96-21.52L111.92-21.52L111.92-19Q113.16-20.36 115-21.10Q116.84-21.84 119.04-21.84L119.04-21.84Z M163.48-21.52L169.48-21.52L159.76 1.32Q158.28 5.04 156.10 6.56Q153.92 8.08 150.84 8.08L150.84 8.08Q149.16 8.08 147.52 7.56Q145.88 7.04 144.84 6.12L144.84 6.12L147.12 1.68Q147.84 2.32 148.78 2.68Q149.72 3.04 150.64 3.04L150.64 3.04Q151.92 3.04 152.72 2.42Q153.52 1.80 154.16 0.36L154.16 0.36L154.24 0.16L144.92-21.52L151.36-21.52L157.40-6.92L163.48-21.52Z M183.28 0.32Q179.88 0.32 177.18-1.10Q174.48-2.52 172.96-5.04Q171.44-7.56 171.44-10.76L171.44-10.76Q171.44-13.96 172.96-16.48Q174.48-19 177.18-20.42Q179.88-21.84 183.28-21.84L183.28-21.84Q186.68-21.84 189.36-20.42Q192.04-19 193.56-16.48Q195.08-13.96 195.08-10.76L195.08-10.76Q195.08-7.56 193.56-5.04Q192.04-2.52 189.36-1.10Q186.68 0.32 183.28 0.32L183.28 0.32ZM183.28-4.80Q185.68-4.80 187.22-6.42Q188.76-8.04 188.76-10.76L188.76-10.76Q188.76-13.48 187.22-15.10Q185.68-16.72 183.28-16.72L183.28-16.72Q180.88-16.72 179.32-15.10Q177.76-13.48 177.76-10.76L177.76-10.76Q177.76-8.04 179.32-6.42Q180.88-4.80 183.28-4.80L183.28-4.80Z M216.28-21.52L222.52-21.52L222.52 0L216.60 0L216.60-2.56Q215.36-1.16 213.64-0.42Q211.92 0.32 209.92 0.32L209.92 0.32Q205.68 0.32 203.20-2.12Q200.72-4.56 200.72-9.36L200.72-9.36L200.72-21.52L206.96-21.52L206.96-10.28Q206.96-5.08 211.32-5.08L211.32-5.08Q213.56-5.08 214.92-6.54Q216.28-8 216.28-10.88L216.28-10.88L216.28-21.52Z M235.88-18.68Q237.00-20.24 238.90-21.04Q240.80-21.84 243.28-21.84L243.28-21.84L243.28-16.08Q242.24-16.16 241.88-16.16L241.88-16.16Q239.20-16.16 237.68-14.66Q236.16-13.16 236.16-10.16L236.16-10.16L236.16 0L229.92 0L229.92-21.52L235.88-21.52L235.88-18.68Z M281.04-6.24L281.04-14.44L286.96-14.44L286.96-3.08Q284.68-1.36 281.68-0.44Q278.68 0.48 275.64 0.48L275.64 0.48Q271.28 0.48 267.80-1.38Q264.32-3.24 262.34-6.54Q260.36-9.84 260.36-14L260.36-14Q260.36-18.16 262.34-21.46Q264.32-24.76 267.84-26.62Q271.36-28.48 275.76-28.48L275.76-28.48Q279.44-28.48 282.44-27.24Q285.44-26 287.48-23.64L287.48-23.64L283.32-19.80Q280.32-22.96 276.08-22.96L276.08-22.96Q273.40-22.96 271.32-21.84Q269.24-20.72 268.08-18.68Q266.92-16.64 266.92-14L266.92-14Q266.92-11.40 268.08-9.36Q269.24-7.32 271.30-6.18Q273.36-5.04 276.00-5.04L276.00-5.04Q278.80-5.04 281.04-6.24L281.04-6.24Z M302.80-21.84Q307.80-21.84 310.48-19.46Q313.16-17.08 313.16-12.28L313.16-12.28L313.16 0L307.32 0L307.32-2.68Q305.56 0.32 300.76 0.32L300.76 0.32Q298.28 0.32 296.46-0.52Q294.64-1.36 293.68-2.84Q292.72-4.32 292.72-6.20L292.72-6.20Q292.72-9.20 294.98-10.92Q297.24-12.64 301.96-12.64L301.96-12.64L306.92-12.64Q306.92-14.68 305.68-15.78Q304.44-16.88 301.96-16.88L301.96-16.88Q300.24-16.88 298.58-16.34Q296.92-15.80 295.76-14.88L295.76-14.88L293.52-19.24Q295.28-20.48 297.74-21.16Q300.20-21.84 302.80-21.84L302.80-21.84ZM302.32-3.88Q303.92-3.88 305.16-4.62Q306.40-5.36 306.92-6.80L306.92-6.80L306.92-9L302.64-9Q298.80-9 298.80-6.48L298.80-6.48Q298.80-5.28 299.74-4.58Q300.68-3.88 302.32-3.88L302.32-3.88Z M336.32-29.68L342.56-29.68L342.56 0L336.60 0L336.60-2.48Q334.28 0.32 329.88 0.32L329.88 0.32Q326.84 0.32 324.38-1.04Q321.92-2.40 320.52-4.92Q319.12-7.44 319.12-10.76L319.12-10.76Q319.12-14.08 320.52-16.60Q321.92-19.12 324.38-20.48Q326.84-21.84 329.88-21.84L329.88-21.84Q334-21.84 336.32-19.24L336.32-19.24L336.32-29.68ZM330.96-4.80Q333.32-4.80 334.88-6.42Q336.44-8.04 336.44-10.76L336.44-10.76Q336.44-13.48 334.88-15.10Q333.32-16.72 330.96-16.72L330.96-16.72Q328.56-16.72 327-15.10Q325.44-13.48 325.44-10.76L325.44-10.76Q325.44-8.04 327-6.42Q328.56-4.80 330.96-4.80L330.96-4.80Z M366.20-21.52L372.12-21.52L372.12-3.60Q372.12 2.32 369.04 5.20Q365.96 8.08 360.04 8.08L360.04 8.08Q356.92 8.08 354.12 7.32Q351.32 6.56 349.48 5.12L349.48 5.12L351.96 0.64Q353.32 1.76 355.40 2.42Q357.48 3.08 359.56 3.08L359.56 3.08Q362.80 3.08 364.34 1.62Q365.88 0.16 365.88-2.80L365.88-2.80L365.88-3.72Q363.44-1.04 359.08-1.04L359.08-1.04Q356.12-1.04 353.66-2.34Q351.20-3.64 349.76-6Q348.32-8.36 348.32-11.44L348.32-11.44Q348.32-14.52 349.76-16.88Q351.20-19.24 353.66-20.54Q356.12-21.84 359.08-21.84L359.08-21.84Q363.76-21.84 366.20-18.76L366.20-18.76L366.20-21.52ZM360.32-6.16Q362.80-6.16 364.38-7.62Q365.96-9.08 365.96-11.44L365.96-11.44Q365.96-13.80 364.38-15.26Q362.80-16.72 360.32-16.72L360.32-16.72Q357.84-16.72 356.24-15.26Q354.64-13.80 354.64-11.44L354.64-11.44Q354.64-9.08 356.24-7.62Q357.84-6.16 360.32-6.16L360.32-6.16Z M400.60-10.68Q400.60-10.56 400.48-9L400.48-9L384.20-9Q384.64-7 386.28-5.84Q387.92-4.68 390.36-4.68L390.36-4.68Q392.04-4.68 393.34-5.18Q394.64-5.68 395.76-6.76L395.76-6.76L399.08-3.16Q396.04 0.32 390.20 0.32L390.20 0.32Q386.56 0.32 383.76-1.10Q380.96-2.52 379.44-5.04Q377.92-7.56 377.92-10.76L377.92-10.76Q377.92-13.92 379.42-16.46Q380.92-19 383.54-20.42Q386.16-21.84 389.40-21.84L389.40-21.84Q392.56-21.84 395.12-20.48Q397.68-19.12 399.14-16.58Q400.60-14.04 400.60-10.68L400.60-10.68ZM389.44-17.12Q387.32-17.12 385.88-15.92Q384.44-14.72 384.12-12.64L384.12-12.64L394.72-12.64Q394.40-14.68 392.96-15.90Q391.52-17.12 389.44-17.12L389.44-17.12Z M418.56-5.44L420.24-1.04Q419.32-0.36 417.98-0.02Q416.64 0.32 415.16 0.32L415.16 0.32Q411.32 0.32 409.22-1.64Q407.12-3.60 407.12-7.40L407.12-7.40L407.12-16.24L403.80-16.24L403.80-21.04L407.12-21.04L407.12-26.28L413.36-26.28L413.36-21.04L418.72-21.04L418.72-16.24L413.36-16.24L413.36-7.48Q413.36-6.12 414.06-5.38Q414.76-4.64 416.04-4.64L416.04-4.64Q417.52-4.64 418.56-5.44L418.56-5.44Z M432.60 0.32Q429.92 0.32 427.36-0.34Q424.80-1 423.28-2L423.28-2L425.36-6.48Q426.80-5.56 428.84-4.98Q430.88-4.40 432.84-4.40L432.84-4.40Q436.80-4.40 436.80-6.36L436.80-6.36Q436.80-7.28 435.72-7.68Q434.64-8.08 432.40-8.36L432.40-8.36Q429.76-8.76 428.04-9.28Q426.32-9.80 425.06-11.12Q423.80-12.44 423.80-14.88L423.80-14.88Q423.80-16.92 424.98-18.50Q426.16-20.08 428.42-20.96Q430.68-21.84 433.76-21.84L433.76-21.84Q436.04-21.84 438.30-21.34Q440.56-20.84 442.04-19.96L442.04-19.96L439.96-15.52Q437.12-17.12 433.76-17.12L433.76-17.12Q431.76-17.12 430.76-16.56Q429.76-16 429.76-15.12L429.76-15.12Q429.76-14.12 430.84-13.72Q431.92-13.32 434.28-12.96L434.28-12.96Q436.92-12.52 438.60-12.02Q440.28-11.52 441.52-10.20Q442.76-8.88 442.76-6.52L442.76-6.52Q442.76-4.52 441.56-2.96Q440.36-1.40 438.06-0.54Q435.76 0.32 432.60 0.32L432.60 0.32Z"/></g>
</svg>
</g><g opacity="1" transform="rotate(0 252.8698 709.3461)">
<svg width="380.9823" height="120" x="252.8698" y="709.3461" version="1.1" preserveAspectRatio="none" viewBox="1.16 -28.64 92.96000000000001 29.28">
  <g transform="matrix(1 0 0 1 0 0)" class="companyName"><path id="id-D6z1nYkh4" d="M16.96 0.64Q12.44 0.64 8.84-1.24Q5.24-3.12 3.20-6.46Q1.16-9.80 1.16-14L1.16-14Q1.16-18.20 3.20-21.54Q5.24-24.88 8.84-26.76Q12.44-28.64 16.96-28.64L16.96-28.64Q21.48-28.64 25.08-26.76Q28.68-24.88 30.72-21.54Q32.76-18.20 32.76-14L32.76-14Q32.76-9.80 30.72-6.46Q28.68-3.12 25.08-1.24Q21.48 0.64 16.96 0.64L16.96 0.64ZM16.96-7Q18.72-7 20.14-7.86Q21.56-8.72 22.40-10.30Q23.24-11.88 23.24-14L23.24-14Q23.24-16.12 22.40-17.70Q21.56-19.28 20.14-20.14Q18.72-21 16.96-21L16.96-21Q15.20-21 13.78-20.14Q12.36-19.28 11.52-17.70Q10.68-16.12 10.68-14L10.68-14Q10.68-11.88 11.52-10.30Q12.36-8.72 13.78-7.86Q15.20-7 16.96-7L16.96-7Z M51.12-22.28Q55.16-22.28 57.62-19.84Q60.08-17.40 60.08-12.48L60.08-12.48L60.08 0L51.04 0L51.04-10.92Q51.04-14.68 48.36-14.68L48.36-14.68Q46.84-14.68 45.90-13.62Q44.96-12.56 44.96-10.28L44.96-10.28L44.96 0L35.92 0L35.92-21.88L44.52-21.88L44.52-19.72Q45.80-21 47.48-21.64Q49.16-22.28 51.12-22.28L51.12-22.28Z M64.28 0L64.28-28L73.72-28L73.72 0L64.28 0Z M91.96-7.04L94.12-0.76Q92.08 0.40 88.56 0.40L88.56 0.40Q83.96 0.40 81.48-1.82Q79-4.04 79-8.48L79-8.48L79-14.08L76-14.08L76-20.68L79-20.68L79-26.80L88.04-26.80L88.04-20.68L92.52-20.68L92.52-14.08L88.04-14.08L88.04-8.56Q88.04-7.56 88.56-7Q89.08-6.44 89.92-6.44L89.92-6.44Q91.08-6.44 91.96-7.04L91.96-7.04Z"/></g>
</svg>
</g><g opacity="1" transform="rotate(0 252.8698 669.3461)">
<svg width="130.0001" height="22" x="252.8698" y="669.3461" version="1.1" preserveAspectRatio="none" viewBox="0 0 130.0001 22">
  <defs><rect x="0" y="0" width="130.0001" height="22" rx="0%" ry="0%" id="id-bTUYkkdP1718447987684"></rect></defs><use class="icon1 shapeStroke-str" style="stroke-width:0;" xlink:href="#id-bTUYkkdP1718447987684"></use>
</svg>
</g></svg></svg>